/* XPM */
static char *result[] = {
/* columns rows colors chars-per-pixel */
"50 50 229 2 ",
"   c #140E0C",
".  c #1B0F09",
"X  c #180B04",
"o  c #15100E",
"O  c #1C120C",
"+  c #161211",
"@  c #1B1513",
"#  c #1F1916",
"$  c #1F1A19",
"%  c #23130C",
"&  c #2A160D",
"*  c #2B190D",
"=  c #311A0E",
"-  c #221712",
";  c #291411",
":  c #241A14",
">  c #2C1C13",
",  c #241C19",
"<  c #2A1E1A",
"1  c #211718",
"2  c #321D14",
"3  c #321E19",
"4  c #3A1E15",
"5  c #2C2016",
"6  c #2D221C",
"7  c #26201D",
"8  c #332116",
"9  c #3B2316",
"0  c #34231B",
"q  c #3B251B",
"w  c #3C291D",
"e  c #35281E",
"r  c #2D2421",
"t  c #2A2524",
"y  c #332622",
"u  c #392522",
"i  c #352A23",
"p  c #3D2B23",
"a  c #3B2D2A",
"s  c #352A28",
"d  c #3D312A",
"f  c #432A1D",
"g  c #492C1D",
"h  c #42231B",
"j  c #532C1D",
"k  c #432D23",
"l  c #482D21",
"z  c #432E29",
"x  c #4B2C28",
"c  c #432523",
"v  c #512C29",
"b  c #5A2E2C",
"n  c #443125",
"m  c #4B3225",
"M  c #45322B",
"N  c #4B342B",
"B  c #4E392C",
"V  c #513325",
"C  c #53352A",
"Z  c #5C342B",
"A  c #543B2D",
"S  c #5A3B2C",
"D  c #4D3530",
"F  c #4C3B31",
"G  c #473833",
"H  c #533631",
"J  c #5C3532",
"K  c #553C33",
"L  c #5C3C32",
"P  c #543E3A",
"I  c #633E2F",
"U  c #6B3F2C",
"Y  c #722D36",
"T  c #683C37",
"R  c #77343C",
"E  c #5C412E",
"W  c #56402F",
"Q  c #574134",
"!  c #5C4233",
"~  c #5C433B",
"^  c #57443A",
"/  c #64412D",
"(  c #634334",
")  c #6B4333",
"_  c #624837",
"`  c #64443C",
"'  c #6C443B",
"]  c #634A3B",
"[  c #6B4C3B",
"{  c #6A4936",
"}  c #72453D",
"|  c #734B3C",
" . c #7A4C3C",
".. c #774934",
"X. c #75553F",
"o. c #7D3A43",
"O. c #5D4342",
"+. c #654A40",
"@. c #6C4C42",
"#. c #674844",
"$. c #734B44",
"%. c #7B4E42",
"&. c #7B4747",
"*. c #6D5345",
"=. c #6F5449",
"-. c #735443",
";. c #7C5245",
":. c #7C534B",
">. c #7C5B4E",
",. c #74564A",
"<. c #665354",
"1. c #7C6050",
"2. c #803941",
"3. c #88464B",
"4. c #8C5A46",
"5. c #84554B",
"6. c #845C4B",
"7. c #8B5C4C",
"8. c #885547",
"9. c #925C4C",
"0. c #954551",
"q. c #9B4756",
"w. c #835C52",
"e. c #8C5E53",
"r. c #8D5D58",
"t. c #935C54",
"y. c #995B56",
"u. c #A3565F",
"i. c #8C634E",
"p. c #95634D",
"a. c #986348",
"s. c #836354",
"d. c #8C6355",
"f. c #8B695A",
"g. c #936553",
"h. c #95665C",
"j. c #9E6659",
"k. c #956B5B",
"l. c #9A6C59",
"z. c #9A6856",
"x. c #99705B",
"c. c #A36452",
"v. c #A36C5B",
"b. c #A86859",
"n. c #B06B5C",
"m. c #AB715F",
"M. c #A2715D",
"N. c #B1785D",
"B. c #A15B63",
"V. c #9A6C64",
"C. c #9B7565",
"Z. c #A56B63",
"A. c #B26A69",
"S. c #A47463",
"D. c #AB7364",
"F. c #AC7A64",
"G. c #AB746B",
"H. c #AD7C6B",
"J. c #A47768",
"K. c #B57265",
"L. c #B57B65",
"P. c #BB7E63",
"I. c #BE766B",
"U. c #B47B6B",
"Y. c #BB7B6D",
"T. c #B27069",
"R. c #B57B73",
"E. c #C37A6A",
"W. c #CA7E74",
"Q. c #D17F79",
"!. c #A8826B",
"~. c #B5816D",
"^. c #AA8272",
"/. c #BD8473",
"(. c #BD8A74",
"). c #B78977",
"_. c #BD937C",
"`. c #C8866D",
"'. c #C38573",
"]. c #CC8474",
"[. c #CB8B73",
"{. c #C48B78",
"}. c #CC8D7C",
"|. c #C78678",
" X c #D3857A",
".X c #D38C7C",
"XX c #D38A75",
"oX c #C5917B",
"OX c #CD917B",
"+X c #DA947C",
"@X c #DB997D",
"#X c #D59379",
"$X c #D1896F",
"%X c #E29C7F",
"&X c #CD8B82",
"*X c #D28D81",
"=X c #DF8B83",
"-X c #CB9784",
";X c #D49483",
":X c #DB9484",
">X c #DC9B84",
",X c #DA968A",
"<X c #DD9C8B",
"1X c #D69C87",
"2X c #E18E85",
"3X c #E19D84",
"4X c #E4938A",
"5X c #E29C8A",
"6X c #E8968A",
"7X c #E89E92",
"8X c #DCA38D",
"9X c #D6A68E",
"0X c #D9AA93",
"qX c #E4A28C",
"wX c #EAA58C",
"eX c #ECA494",
"rX c #ECAA93",
"tX c #E7A996",
"yX c #F3A59C",
"uX c #F3AA9E",
"iX c #F6A79A",
"pX c #E8B39C",
"aX c #F3B19B",
"sX c #F6ABA1",
"dX c #FBADA4",
"fX c #EEB5A1",
"gX c #F7B8A7",
"hX c #FBC3AD",
"jX c None",
/* pixels */
"jXjXjXjXjXjXjXjXjXjXjXjXjXjXjXjXjXjXjXp q > p 8 w n Q n w jXjXjXjXjXjXjXjXjXjXjXjXjXjXjXjXjXjXjXjXjX",
"jXjXjXjXjXjXjXjXjXjXjXjXjXjXf N * w 5 % O O 6 5 q G Q ,.A w w m m jXjXjXjXjXjXjXjXjXjXjXjXjXjXjXjXjX",
"jXjXjXjXjXjXjXjXjXjXjXN B f > * - 5 < . > 5 d < p n *.[ _ B i p W W n jXjXjXjXjXjXjXjXjXjXjXjXjXjXjX",
"jXjXjXjXjXjXjXjXjXjXN W B k % O > G ^ . y N M _ ~ ! ! *.! W M F 8 m n W jXjXjXjXjXjXjXjXjXjXjXjXjXjX",
"jXjXjXjXjXjXjXjXjXp M w 8 % > > % W F q % p M B n Q Q / ( E ] W p ! *.] ] [ jXjXjXjXjXjXjXjXjXjXjXjX",
"jXjXjXjXjXjXjXjXn n n w 0 p 6 > 6 d B B 8 8 w N m A W _ W [ E ~ Q W m ] E _ =.m jXjXjXjXjXjXjXjXjXjX",
"jXjXjXjXjXjXjXn N M k k e w n A Q _ ( ( ! ] m = m A k % O 5 8 ! [ E ] W ! E X.] ! Q jXjXjXjXjXjXjXjX",
"jXjXjXjXjXjXq 2 > q p w N L / 4.l.~.D.M.4.7.| S l > > e w e W W n m V ! X.E _ { E W A m jXjXjXjXjXjX",
"jXjXjXjXjXw q 8 = M m k / 4.N.$X+X+X}.[.'.L.v.i.| Z A 9 8 > % O O 5 l w Q A E ] E V w 9 B _ jXjXjXjX",
"jXjXjXjXn N n w 8 B m ( 4.~.$X#X@X%X@X+XXX#X}.'.K.p. .S 9 2 < % X 5 N M X e * w ] w m n A [ X.jXjXjX",
"jXjXjXjXf n w w m f / %.a.`.$X%X3X3XqX>XqX>X+X@X{./.m.p.%.V * O # 6 n ] * d % 5 G 8 ! ! E E X.-.jXjX",
"jXjXjXjXw q f f 9 m ) a.n.`.#X%XwXrXwX>XwXqXqX8X>XOX'.~.v.g.X - e 0 0 8 N > . % i * m ! m f V { jXjX",
"jXjXjXn 0 O : 8 q Q  .b.~.$X@X%XwXwXrXwXqXqXqX>X+X}.'.'.U.8.4 2 p n k > * > % 5 5 5 n B n n f g [ jX",
"jXjXjX5 e % e q 9 S a.N.`.$X@X%X%XqXwXqX>X<XqX8X8X>X}.Y.L.7.Z q m ] _ w * 0 O G p k f W Q A n w f jX",
"jXjX0 O > . w Q m I a.N.`.$X#X@X@X@X%X%X5XqXqXqX>X:X;X'.c.z.%.h 9 j / X.n f ! V w q W w m A n f e 9 ",
"jX0 > 5 5 X > B @./ 4.~.`.#X#X@X3X%X>X3XqX5XqXqXqX:X.X.X'.L.9.g m V f _ [ ( W m w 8 5 5 8 9 n m 8 * ",
"jXw q % p O i l { ....~.`.#X@X@XqXrXrXaXaXrXqXwX8X<X>X*X}./.D.) g [ L A S V / W * 8 q 5 > 8 9 n w 2 ",
"jXjX9 p e 5 0 k W / ..a.`.[.8XqXaXaXaXaXaXeXeXqX5X<X,X;X1X*X/.z.m -.L _ A S A ! W f w p % > 8 2 q 9 ",
"jXjX2 w e > a k g V ..a.~.[.9X8XtXpXaXaXpXrXtXtX5X<X:X1X:X}./.S.$.c A _ g N m S 4 m f & w 8 = % 8 w ",
"jXjXjX8 e 8 z q g V / a.~.x.V.k.C.J.^.oX&X<X,X*X,X;X;X*X|.D.r.#.k 2 4 * f f f n f f f & > 8 q > 9 m ",
"jXjXjXjX> > k k f g / z.-.A K N M a M P #.w.G.A.|.'./.Y.R.:.P z y y C l l ~ ! K m = B = * 5 2 2 9 [ ",
"jXjXjXjXe % 8 k 9 g S V K K P ~ #.O.D M P T w.J.).U.T.U.J.:.:.:.>.;.:.:.;.) ) { ! 8 ! w 8 8 > 8 w jX",
"jXjXjXjXjX: > f w g g | s.V.V.h.k.g.w.7.r.h.V.S.R.R.U.G.j.h.5.' Z Z Z T ) I ) S h f ] w q 8 > 9 l jX",
"jXjXjXjXjX0 > f 9 S _ i.k.e.' $.$.#.J C Z } 5.j./.;XOXY.j.;.Z v x c u < y D L C g V A 9 8 8 0 w jXjX",
"jXjXjXjXjXjX* p A | i.i.8.| ` M 1 1 , P N T | 7.OXwX7X`.b.) T v O.P s s <.H C S V ` 9 0 8 8 p q jXjX",
"jXjXjXjXjXjX9 k ( p.g.l.4.X.T =.<.a z J J ' %.m.+X7XiX.Xm.8.$.) T T #.$.:.5.X.( [ { 1.f k w B jXjXjX",
"jXjXjXjXjXjXw m { g.x.N.F.J.S.k.5.3.$.T $.:.m.E.+X7XdXyX:Xb.c.z.5.:.:.5.t.k.j / 6.k.C.q p jXjXjXjXjX",
"jXjXjXjXjXjXjX9 { a.!.oX{.oX(.H.V.V.r.V.G.}.$X X.X4XdXdX5X}.n.U./.T.D.D.H.U./.'.oX(.).> jXjXjXjXjXjX",
"jXjXjXjXjXjXjX2 S l.(.@X8X8X1X-X&X&X1X7X4X X$X XQ.2XyXyXyX].OX{.'.|..X1X,X8XtXfXhX9X_.e jXjXjXjXjXjX",
"jXjXjXjXjXjXjXjXl 4.{.8XqXrXsXsXsXyX7X5X+X$X$X XQ.=XdXyX6X2X*XL.K.W..X<XtXaXhXhXhXpX!.i jXjXjXjXjXjX",
"jXjXjXjXjXjXjXjXf 6.~.;XeXuXdXsXsXyX7X4XQ.E.W.W.Q.6XyXdX7XgX4XY.y.n.E.].:XeXfXgXhXpX1.i jXjXjXjXjXjX",
"jXjXjXjXjXjXjXjX> ;.F.OX<XqXyX7X7X4X*XW.E.W. XQ.Q.2X4X4X6XdXsXeX Xy.b.A.I.*X<XpXpX0X] d jXjXjXjXjXjX",
"jXjXjXjXjXjXjXjX> ~ S.(.#X>X5X,X=XW.n.b.B.W. XE.A.I.].Q.&X*XQ.&X,X5.0.t.b.K.{.8XtX_.N e jXjXjXjXjXjX",
"jXjXjXjXjXjXjXjX@ i x.~.oX;X.X|.N.y.8.c.L.A.3. .2.t.A.T.T.r.o.V.r.y.8.| %.v.Y.-X9X!.d jXjXjXjXjXjXjX",
"jXjXjXjXjXjXjXjX% , >.H./.{.Y.Z.&.T 5.D.I.Z.5.b b $.r.h.&.J G o.w.d.} K F ' C.-X-X1.t jXjXjXjXjXjXjX",
"jXjXjXjXjXjXjXjX% - @.k.M.^.Z.%.k C ` $.' H c p k u 3 u u 3 y z M K N G p Q g._.).W 6 jXjXjXjXjXjXjX",
"jXjXjXjXjXjXjXjXjX% n @.k.C.d.A z M k N H c M x M 3 3 ; u c G z ~ P M p e M 1.^.f.d 0 jXjXjXjXjXjXjX",
"jXjXjXjXjXjXjXjXjX- 6 A 1.d.;.x 3 p H k L #.J T b R &.o.o.&.&.:.&.v ~ z u z +.f.Q 5 < jXjXjXjXjXjXjX",
"jXjXjXjXjXjXjXjXjXjX: e ~ ] >.Q u 0 #.:.T Y Y Y Y o.o.o.o.2.2.B.r.:.=.H 0 ] 1.=.y 7 jXjXjXjXjXjXjXjX",
"jXjXjXjXjXjXjXjXjXjXO - 6 Q +.N 8 D #.:.e.y.0.0.0.3.0.0.2.q.A.R.Z.w.:.H u ~ ,.^ , 5 jXjXjXjXjXjXjXjX",
"jXjXjXjXjXjXjXjXjXjXO + @ y M M 0 y H :.:.5.y.u.q.q.q.q.q.B.V.e.d.s.@.p 7 s G i r > jXjXjXjXjXjXjXjX",
"jXjXjXjXjXjXjXjXjXjXjX    O , < , : z M $.@.` H b c h 4 3 z =.>.>.#.N > 7 i i : 6 jXjXjXjXjXjXjXjXjX",
"jXjXjXjXjXjXjXjXjXjXjXjX@   o + @ 1 < z z K L M ; 1 O   : u O.>.+.F e # : 7 # t 5 jXjXjXjXjXjXjXjXjX",
"jXjXjXjXjXjXjXjXjXjXjXjXt O + +   O , 6 y D #.O.z u u s y D ^ Q K a r : : 7 t 7 jXjXjXjXjXjXjXjXjXjX",
"jXjXjXjXjXjXjXjXjXjXjXjXjX>.1 $ + @ # 1 < M D D z G s u a G F M D d , , + , # 6 jXjXjXjXjXjXjXjXjXjX",
"jXjXjXjXjXjXjXjXjXjXjXjXjXjXjX1 + @ + # , < y z z a r s 6 d i y y 5 r , , 7 t jXjXjXjXjXjXjXjXjXjXjX",
"jXjXjXjXjXjXjXjXjXjXjXjXjXjXjXjXr + + O # 1 , < y s < y 7 r r 6 y 6 @ , 1 , jXjXjXjXjXjXjXjXjXjXjXjX",
"jXjXjXjXjXjXjXjXjXjXjXjXjXjXjXjXjXy 1 + @   # + 1 1 # @ @ 7 # @ # , @ 1 # jXjXjXjXjXjXjXjXjXjXjXjXjX",
"jXjXjXjXjXjXjXjXjXjXjXjXjXjXjXjXjXjXjX7 # $ + + # +   o o O : @ , $ jXjXjXjXjXjXjXjXjXjXjXjXjXjXjXjX",
"jXjXjXjXjXjXjXjXjXjXjXjXjXjXjXjXjXjXjXjXjX1 1 , t : o + + + + jXjXjXjXjXjXjXjXjXjXjXjXjXjXjXjXjXjXjX"
};
