/* XPM */
static char *result[] = {
/* columns rows colors chars-per-pixel */
"40 40 186 2 ",
"   c #541A00",
".  c #622B05",
"X  c #6A2E01",
"o  c #703707",
"O  c #753908",
"+  c #7B4D06",
"@  c #764908",
"#  c #794B09",
"$  c #734207",
"%  c #7F5006",
"&  c #864901",
"*  c #83490B",
"=  c #8B4F03",
"-  c #825305",
";  c #8A5B0B",
":  c #8C5A1D",
">  c #976607",
",  c #9E7011",
"<  c #AF6C01",
"1  c #A16C0E",
"2  c #B86D01",
"3  c #B26F02",
"4  c #A87107",
"5  c #BB7602",
"6  c #B67A01",
"7  c #BC7C01",
"8  c #B6770A",
"9  c #BE7D09",
"0  c #A47611",
"q  c #A57812",
"w  c #AC7D13",
"e  c #AF781F",
"r  c #B77B16",
"t  c #9F6F2C",
"y  c #C07703",
"u  c #C27C01",
"i  c #C97F00",
"p  c #BE8100",
"a  c #B8810E",
"s  c #AE8114",
"d  c #B38616",
"f  c #B68918",
"g  c #BA8D1A",
"h  c #C38503",
"j  c #CC8400",
"k  c #C78803",
"l  c #CA8A04",
"z  c #C48609",
"x  c #CB8C09",
"c  c #D18400",
"v  c #D48C01",
"b  c #CE9100",
"n  c #D59302",
"m  c #DB9401",
"M  c #DB9B03",
"N  c #D5950B",
"B  c #D6990F",
"V  c #DB9B0C",
"C  c #CC8E11",
"Z  c #D69911",
"A  c #D99D14",
"S  c #D0901C",
"D  c #D1981A",
"F  c #E09700",
"G  c #E39D01",
"H  c #E29E09",
"J  c #DCA307",
"K  c #DCA30B",
"L  c #DCA214",
"P  c #DEA51B",
"I  c #E5A302",
"U  c #E9A502",
"Y  c #E6A802",
"T  c #EBAA04",
"R  c #E4A30A",
"E  c #E4AA0D",
"W  c #ECAC0B",
"Q  c #E9A40B",
"!  c #EDB304",
"~  c #EDB20B",
"^  c #F1B30C",
"/  c #E2A614",
"(  c #E5AB15",
")  c #E9AB12",
"_  c #E3A719",
"`  c #E4AB1A",
"'  c #EBB315",
"]  c #E6B11B",
"[  c #EAB21B",
"{  c #F3B512",
"}  c #F2BE13",
"|  c #C99F23",
" . c #C59122",
".. c #DE9F20",
"X. c #CFA32A",
"o. c #CBA224",
"O. c #DCA926",
"+. c #D1A62F",
"@. c #D8A72D",
"#. c #D6AD2A",
"$. c #D9B12B",
"%. c #DAB130",
"&. c #DBB43E",
"*. c #E4AD22",
"=. c #E6B126",
"-. c #E9B325",
";. c #E7B823",
":. c #E7B329",
">. c #E9B529",
",. c #E1B92F",
"<. c #EEB926",
"1. c #F6BD20",
"2. c #F8BF21",
"3. c #E2BC3E",
"4. c #EABB3C",
"5. c #EABB36",
"6. c #F4C318",
"7. c #F7CA2D",
"8. c #EDC439",
"9. c #F5CC35",
"0. c #F0C839",
"q. c #FBCF32",
"w. c #FAD434",
"e. c #F6D13D",
"r. c #FBD43C",
"t. c #FDDA3B",
"y. c #CEA64A",
"u. c #DBB653",
"i. c #EDBF43",
"p. c #E4B747",
"a. c #EFC847",
"s. c #E6C249",
"d. c #EECC4C",
"f. c #E8C248",
"g. c #F7D542",
"h. c #FEDF46",
"j. c #F1D14F",
"k. c #F9D949",
"l. c #FAD44B",
"z. c #E7CB59",
"x. c #EFCD5F",
"c. c #E9C557",
"v. c #F5D956",
"b. c #FEE147",
"n. c #FEE14B",
"m. c #FEE354",
"M. c #ECCB62",
"N. c #F0CF63",
"B. c #F2D164",
"V. c #F4D469",
"C. c #F6DC68",
"Z. c #EBCE78",
"A. c #F5DA74",
"S. c #F4DF7E",
"D. c #F4D772",
"F. c #FCE368",
"G. c #F7E672",
"H. c #F5E17D",
"J. c #EECD87",
"K. c #F6DE8D",
"L. c #E7D195",
"P. c #F5DE91",
"I. c #F7E28F",
"U. c #FCEB89",
"Y. c #FFF185",
"T. c #FEF188",
"R. c #F5E096",
"E. c #F5E29D",
"W. c #F9EB91",
"Q. c #FFF594",
"!. c #FFF898",
"~. c #F8E9A0",
"^. c #F4E3A9",
"/. c #FDF3AC",
"(. c #FEF4A1",
"). c #F3E5B1",
"_. c #F4E8BD",
"`. c #FFFBBC",
"'. c #F1E7C2",
"]. c #F3E9C3",
"[. c #F3EACB",
"{. c #FEF7C5",
"}. c #FAF1CE",
"|. c #FFFEEB",
" X c #FFFEF4",
".X c None",
/* pixels */
".X.X.X.X.X.X.X.X.X.X.X.X.X.X.X.X.X.X.X.X.X.X.X.X.X.X.X.X.X.X.X.X.X.X.X.X.X.X.X.X",
".X.X.X.X.X.X.X.X.X.X.X.X.X.XV R R M M R K E / R K E .X.X.X.X.X.X.X.X.X.X.X.X.X.X",
".X.X.X.X.X.X.X.X.X.X.Xa I G G G G G G M m m m m B L ] ;.;..X.X.X.X.X.X.X.X.X.X.X",
".X.X.X.X.X.X.X.X.X1 U I I I I G I G F F m m v v v v z d.j.j.v..X.X.X.X.X.X.X.X.X",
".X.X.X.X.X.X.X.XU U U I U U U G G G G F m m v v v v v v p S.H.S..X.X.X.X.X.X.X.X",
".X.X.X.X.X.Xr T T Q U T U U U G Q *.` H m m m v v j v v v h _.'.'.'..X.X.X.X.X.X",
".X.X.X.X.X* T T U U T U U  X|...m F F F m O.+.v v j v j v v k [.[.[.[..X.X.X.X.X",
".X.X.X.XO T W Q U Q T  XJ.F G G F F v M F m m v 8 v v v j j v x '.].[.}..X.X.X.X",
".X.X.X.XW T W T Q )  Xm G G G G F F H F F m m m v j j v v v j v C ).'.]..X.X.X.X",
".X.X.Xx ^ W W T i.}.F G G G G G G y R F.F F m m m v i u v c v v l P.P.^.)..X.X.X",
".X.Xo W W W W [ {.G G G G I G G G v E F.c F m m m v v i j v j v v 4 P.K.P.R..X.X",
".X.X^ W W W W W.m Q G Q G Q G G 5 V ' v.!.F F m v m m v i v j v v c Z.K.P.K..X.X",
".X* W W ^ ) C.n R R R R G R G R i M [ r.Q.c m m m m v v v u v j v v > D.A.A.A..X",
".Xz W W ) W &.R R Q I R R R R 2 v V ' r.Y.Q.F m m v m v v j j v v v j 4.f.d.a..X",
".XW W ~ W +.m R R I R R Q R G n M J ' q.n.Y.S m m v v m v v u v v v v w +.#.$..X",
".XW W W )  .R Q H R Q Q R R Q H G I ~ q.b.m.n.n.n.h.b.9.v v j v v v v = f g g .X",
"e W W ) E x E N x x M R H H V M I Y ~ 0.w.t.t.t.t.t.w.7.[ M v v v v v & d w d w ",
"D W ) Q z V ( ( l l h n M V I M G.I Y V } 6.6.} ^ W Q T T v v 5 v v v y f d d d ",
") ) ) / < V ( ] ] k x h l n M b F.J Y n ! ! ! T U U T T v v n i v m v m f f g d ",
"_ ) ) ) < N ] ] ] ( k x j l M n v.J I x Y T T T T T ^ v m v v j v v v F w d g g ",
"_ ( ) _ 3 V ` ] ] ] ] l z k n b z.M M p I I Y T W W c v v v m j v v v m > > 0 s ",
"` _ _ _ 8 V ( ] ] ] ] ( p p n M M M M I I U I ^ { j m v v v v j n v m m - - - ; ",
"p._ _ _ C V ( ] ] ] ] ] 6 p b M n M M I I I ' 9.8.n v m m v v h v n v 5 - % + + ",
"L._ _ ` P Z ' ) ] ] ] ] p p b n M M J I Y I ( e.k.m m v v v v N N n n X - - + - ",
".X_ _ _ *.@.` [ ] ] ] ] 6 h b n M M M J I Y E g.k.m m v v v v V N m N   * % + .X",
".X_ _ _ _ D.V ( ] ] ' ] 6 b b b M J E E J I Y e.m.N m v v n N B N N N . + + + .X",
".Xp.` _ ` ` A.' ] ' ] ] p b n J J J n E ~ K Y ' m.m N n v v B V B B x # @ + + .X",
".X).` ` *.` U.V ] ] ] ` l b J J b ` ] L K E E Y k.N m N v / B B Z B   @ @ @ @ .X",
".X.X_ ` ` *.*./.] ] ] b b J B ` ] ] ] ` ` K ' E T Z V m m B B B Z V $ @ # # .X.X",
".X.X).*.*.*.*.4./.] ' n b ` ] ] ] ] ] ] ` ` P K E O.V V _ V B B Z . ; ; ; ; .X.X",
".X.X.X4.*.*.*.-.N.E.] ] ] ] ] ] ] ] $.] ] P ( / / A V [ B B B B C q q q , .X.X.X",
".X.X.X.X-.*.=.-.=.8.`.] ] ] ] ] ] ] ] ] ` ` ( / / L _ B B V S B : s s w .X.X.X.X",
".X.X.X.X~.=.=.=.=.-.-.(.i.[ [ =.] =.] ] ] ` ` ( 2.A A Z Z Z Z t | | o.| .X.X.X.X",
".X.X.X.X.XI.=.=.:.-.>.>.>.C.l.] ] ] ] ] ] ] 6.P P A A A Z Z y.$.$.#.#..X.X.X.X.X",
".X.X.X.X.X.XV.-.:.-.:.>.>.>.>.>.>.<.<.=.O.P P P P A A A Z u.$.$.$.$..X.X.X.X.X.X",
".X.X.X.X.X.X.X.X=.:.-.:.>.>.>.>.>.:.=.*.P =.O.P P L A Z c.,.,.,..X.X.X.X.X.X.X.X",
".X.X.X.X.X.X.X.X.XV.-.>.>.>.>.>.>.:.=.*.*.` ` P P A M.s.s.s.s..X.X.X.X.X.X.X.X.X",
".X.X.X.X.X.X.X.X.X.X.XB.>.>.>.>.>.:.*.*.O.` O.P M.s.3.p.8..X.X.X.X.X.X.X.X.X.X.X",
".X.X.X.X.X.X.X.X.X.X.X.X.X.XB.B.i.:.:.5.x.N.c.$.%.%..X.X.X.X.X.X.X.X.X.X.X.X.X.X",
".X.X.X.X.X.X.X.X.X.X.X.X.X.X.X.X.X.X.X.X.X.X.X.X.X.X.X.X.X.X.X.X.X.X.X.X.X.X.X.X"
};
